PathFileType	4	(X/Y/Z)	C:/Users/dbak576/Desktop/Duncan Bakke Modelling Files/H28s1/Static_H28s1.trc	
DataRate	CameraRate	NumFrames	NumMarkers	Units	OrigDataRate	OrigDataStartFrame	OrigNumFrames	
200.00	200.00	4	61	mm	200.00	488	187	
Frame#	Time	LFHD			RFHD			LBHD			RBHD			C7			T10			CLAV			STRN			RBack			LASI			RASI			LPSI			RPSI			RACR1			RUA1			RElbow			RElbowM			RFA1			RWRR			RWRU			RCAR			LACR1			LUA1			LElbow			LElbowM			LFA1			LWRR			LWRU			LCAR			RTH1			RTH3			RTH2			RTH4			RLFC			RMFC			RTB1			RTB3			RTB2			RTB4			RLMAL			RMMAL			RCAL			RMT1			RMT5			RToe			LTH1			LTH3			LTH2			LTH4			LLFC			LMFC			LTB1			LTB3			LTB2			LTB4			LLMAL			LMMAL			LCAL			LMT1			LMT5			LToe			
		X1	Y1	Z1	X2	Y2	Z2	X3	Y3	Z3	X4	Y4	Z4	X5	Y5	Z5	X6	Y6	Z6	X7	Y7	Z7	X8	Y8	Z8	X9	Y9	Z9	X10	Y10	Z10	X11	Y11	Z11	X12	Y12	Z12	X13	Y13	Z13	X14	Y14	Z14	X15	Y15	Z15	X16	Y16	Z16	X17	Y17	Z17	X18	Y18	Z18	X19	Y19	Z19	X20	Y20	Z20	X21	Y21	Z21	X22	Y22	Z22	X23	Y23	Z23	X24	Y24	Z24	X25	Y25	Z25	X26	Y26	Z26	X27	Y27	Z27	X28	Y28	Z28	X29	Y29	Z29	X30	Y30	Z30	X31	Y31	Z31	X32	Y32	Z32	X33	Y33	Z33	X34	Y34	Z34	X35	Y35	Z35	X36	Y36	Z36	X37	Y37	Z37	X38	Y38	Z38	X39	Y39	Z39	X40	Y40	Z40	X41	Y41	Z41	X42	Y42	Z42	X43	Y43	Z43	X44	Y44	Z44	X45	Y45	Z45	X46	Y46	Z46	X47	Y47	Z47	X48	Y48	Z48	X49	Y49	Z49	X50	Y50	Z50	X51	Y51	Z51	X52	Y52	Z52	X53	Y53	Z53	X54	Y54	Z54	X55	Y55	Z55	X56	Y56	Z56	X57	Y57	Z57	X58	Y58	Z58	X59	Y59	Z59	X60	Y60	Z60	X61	Y61	Z61	

164	0.815	-8.78944	-327.77386	1446.30115	86.47668	-343.67291	1433.52490	-49.41254	-458.03375	1380.97253	82.28875	-478.65976	1370.93164	13.50460	-514.48346	1277.53613	23.62520	-579.32074	1072.35205	12.36204	-366.63382	1207.38550	11.08600	-314.82874	1107.25354	123.23307	-555.64539	1149.63110	-156.79025	-379.19534	831.56641	162.73668	-344.83975	832.55341	-26.33048	-626.27954	862.46515	76.90572	-608.97821	853.83069	157.89400	-478.03674	1261.09680	282.95694	-465.07761	1225.27087	399.95020	-433.12759	1197.53149	391.21637	-370.03079	1146.28845	512.41315	-409.98325	1244.40051	602.36731	-357.51859	1262.82336	613.09674	-386.08624	1197.75842	677.69434	-350.63565	1231.57166	-142.06404	-478.66641	1263.70239	-277.18802	-441.39114	1230.82483	-380.91977	-396.68326	1190.39954	-360.27393	-344.55624	1154.61401	-477.54446	-389.24219	1229.64026	-575.74017	-336.32175	1247.18616	-585.18896	-355.88510	1188.08325	-644.99341	-326.74957	1215.50488	220.38165	-427.24005	652.49408	190.02498	-445.23383	482.29254	187.62912	-380.25183	566.28894	209.12045	-437.20337	567.11182	172.25804	-481.08463	398.73969	33.80125	-457.04578	386.49576	139.92360	-429.98154	294.49731	143.33694	-442.56140	123.90336	188.83412	-478.74854	212.96991	141.29425	-440.12909	208.33929	181.01292	-492.25705	62.92126	99.97348	-473.82440	63.03595	136.05484	-544.82294	31.36242	124.62144	-375.11594	26.98660	216.28242	-406.79697	25.14368	162.63177	-321.35992	28.96646	-216.25563	-453.85529	673.34772	-193.07591	-462.66403	501.00235	-186.90625	-403.07486	589.15662	-210.85669	-456.48883	587.08618	-174.57806	-448.58099	406.19397	-32.99265	-449.47318	398.86243	-129.69817	-425.94431	298.68689	-152.57881	-447.31076	130.24658	-193.47250	-467.00494	223.54073	-139.93309	-439.72559	212.28062	-188.86214	-503.09836	64.11139	-112.52836	-473.66882	65.25433	-145.76578	-541.01941	41.07363	-140.59372	-374.23941	32.02166	-223.86961	-420.22705	20.91225	-172.02809	-320.86249	26.26523 
165	0.820	-9.02801	-327.61685	1446.52161	86.53468	-343.72635	1433.51343	-49.30893	-458.04514	1380.93042	82.29015	-478.69333	1370.90186	13.53191	-514.55719	1277.51697	23.64159	-579.31989	1072.34741	12.31042	-366.70395	1207.41943	11.12374	-314.88583	1107.22827	123.25031	-555.70605	1149.66406	-156.69502	-379.16074	831.45441	162.69052	-344.85736	832.51544	-26.33661	-626.29913	862.48151	76.86086	-608.91766	853.84625	157.92067	-478.02859	1261.09387	282.97034	-465.08032	1225.28662	399.93939	-433.17004	1197.52429	391.22156	-370.13763	1146.30249	512.38458	-410.06607	1244.44165	602.33490	-357.55609	1262.85706	613.12964	-386.13174	1197.81299	677.72449	-350.69189	1231.66650	-142.06874	-478.69427	1263.69055	-277.24670	-441.45306	1230.82788	-380.90543	-396.68280	1190.42065	-360.32529	-344.62042	1154.65491	-477.70462	-389.33383	1229.78955	-575.79138	-336.36234	1247.24390	-585.20526	-355.91537	1188.15393	-645.05835	-326.72757	1215.55530	220.37712	-427.22870	652.45557	189.98073	-445.01849	482.27515	187.61363	-380.22565	566.27856	209.01532	-437.11707	567.10168	172.25362	-481.12674	398.76642	33.86864	-456.79111	386.42184	139.89902	-430.01166	294.51019	143.32617	-442.55740	123.90652	188.86325	-478.73883	212.99681	141.28120	-440.13443	208.34776	181.17558	-492.23962	62.83686	99.97383	-473.82120	63.03834	136.09093	-544.78387	31.33474	124.71506	-375.42273	26.94300	216.40910	-406.84381	25.16932	162.59233	-321.35611	28.96192	-216.25079	-453.91116	673.36847	-193.08698	-462.64883	500.99146	-186.91122	-403.09506	589.16046	-210.83109	-456.49554	587.12744	-174.59442	-448.59708	406.19376	-32.98496	-449.50012	398.86057	-129.68948	-425.94730	298.66876	-152.59122	-447.29886	130.25569	-193.48944	-467.05731	223.57361	-139.95235	-439.73724	212.29659	-188.86842	-503.08728	64.11581	-112.53063	-473.70697	65.24011	-145.77988	-541.02136	41.09433	-140.61385	-374.24878	32.00362	-223.75366	-420.20901	20.82726	-172.06111	-320.83539	26.26286 
166	0.825	-9.32872	-327.44028	1446.72583	86.60710	-343.78723	1433.50745	-49.29035	-458.05679	1380.92334	82.28970	-478.73093	1370.86353	13.53739	-514.59631	1277.52075	23.65693	-579.30664	1072.33057	12.24284	-366.76120	1207.42920	11.14457	-314.99390	1107.20654	123.26541	-555.75671	1149.69153	-156.63261	-379.12717	831.38519	162.66708	-344.90793	832.46313	-26.33408	-626.34387	862.48566	76.75400	-608.95074	853.86035	157.96283	-478.02664	1261.11365	282.98734	-465.07724	1225.31055	399.93896	-433.20422	1197.53735	391.21146	-370.22372	1146.36389	512.36719	-410.09937	1244.44031	602.29987	-357.57611	1262.88232	613.16528	-386.16470	1197.87073	677.75293	-350.74362	1231.75647	-142.08633	-478.72305	1263.65222	-277.29144	-441.50259	1230.82483	-380.89551	-396.67743	1190.42468	-360.35342	-344.71381	1154.66687	-477.88940	-389.46503	1229.94153	-575.79279	-336.37683	1247.30383	-585.23083	-355.93512	1188.20642	-645.08942	-326.72299	1215.55566	220.38158	-427.23102	652.40222	190.02728	-444.81439	482.24670	187.59952	-380.20016	566.26410	208.92244	-437.03433	567.07404	172.27682	-481.17233	398.79428	33.93887	-456.59094	386.34921	139.88579	-430.03821	294.53650	143.30904	-442.54745	123.90594	188.89626	-478.74426	213.00385	141.26933	-440.13742	208.36198	181.17122	-492.19861	62.88942	99.97278	-473.82233	63.04441	136.13982	-544.75464	31.29293	124.61897	-375.64432	27.19486	216.90381	-406.95685	25.27066	162.57697	-321.36472	28.95887	-216.24248	-453.93164	673.42078	-193.09514	-462.63904	500.98456	-186.92970	-403.10132	589.15125	-210.81824	-456.51147	587.14001	-174.60843	-448.61514	406.18289	-32.97436	-449.52496	398.85971	-129.68413	-425.94653	298.63840	-152.62097	-447.27905	130.22623	-193.56152	-467.14780	223.63741	-139.97487	-439.73483	212.31395	-188.86868	-503.08124	64.11024	-112.54313	-473.74225	65.20338	-145.79843	-541.01971	41.10020	-140.62494	-374.26022	31.97219	-223.71535	-420.22375	20.78636	-172.08452	-320.81848	26.26958 
167	0.830	-9.54881	-327.41211	1446.74426	86.60009	-343.87320	1433.51038	-49.38689	-458.04160	1380.96790	82.28486	-478.77197	1370.82910	13.46945	-514.57983	1277.59119	23.67218	-579.30450	1072.31421	12.19543	-366.82022	1207.40186	11.12782	-315.08191	1107.18079	123.27499	-555.79193	1149.71057	-156.55527	-379.07880	831.31494	162.66757	-344.98154	832.40601	-26.33220	-626.40289	862.46051	76.57832	-609.06116	853.86237	158.00346	-478.03104	1261.14587	283.01523	-465.09149	1225.33032	399.95508	-433.23187	1197.56873	391.21732	-370.27737	1146.40332	512.35651	-410.09888	1244.43103	602.26202	-357.58310	1262.91980	613.22205	-386.23694	1197.95947	677.78693	-350.77484	1231.86292	-142.10175	-478.73367	1263.61169	-277.32693	-441.54861	1230.82642	-380.88696	-396.67920	1190.40173	-360.35422	-344.82849	1154.66260	-478.06430	-389.63309	1230.06714	-575.76379	-336.37607	1247.34436	-585.26874	-355.95798	1188.23865	-645.10651	-326.73813	1215.59216	220.38680	-427.23260	652.35565	190.19867	-444.65152	482.20914	187.57974	-380.17856	566.25214	208.84003	-436.96280	567.04370	172.32739	-481.22028	398.83093	34.01717	-456.45114	386.30490	139.88232	-430.06570	294.56680	143.29779	-442.54166	123.90450	188.93030	-478.76151	213.00259	141.26634	-440.13895	208.37726	181.09445	-492.14926	62.95648	99.97218	-473.82465	63.04778	136.22083	-544.70856	31.20111	124.70262	-375.77679	27.19141	217.57393	-407.15521	25.39241	162.57300	-321.37244	28.93582	-216.24245	-453.92786	673.47699	-193.10103	-462.63770	500.97519	-186.95317	-403.09564	589.14545	-210.81444	-456.52606	587.13226	-174.61220	-448.62769	406.16864	-32.95321	-449.54575	398.86594	-129.68187	-425.93985	298.59937	-152.65269	-447.26956	130.17720	-193.70854	-467.27072	223.74553	-140.00430	-439.72357	212.33145	-188.86763	-503.07605	64.10079	-112.57970	-473.77682	65.16134	-145.78294	-541.02765	41.10540	-140.62599	-374.25851	31.96366	-223.71457	-420.22498	20.80004	-172.09930	-320.80579	26.26254 
